# xmcd
#
# Track frame offsets:
#	150
#	24118
#	48955
#	80110
#	111725
#	137025
#	159628
#	188733
#	214095
#	243835
#	262125
#	274648
#	301090
#
# Disc length: 4294 seconds
#
# Revision: 0
# Processed by: cddbd v1.4PL0 Copyright (c) Steve Scherf et al.
# Submitted via: dBpowerAMP V4.0
#
DISCID=b310c40d
DTITLE=george michael - the best hit singles collection
DYEAR=1900
DGENRE=Blues
TTITLE0=star people 
TTITLE1=fast love
TTITLE2=jesus to a child
TTITLE3=i want your sex
TTITLE4=too funky
TTITLE5=cateless whisper
TTITLE6=spinning the weel
TTITLE7=older
TTITLE8=freedom
TTITLE9=i knew you were waiting ( for me )
TTITLE10=faith
TTITLE11=don't let the sun go down on me with elton john
TTITLE12=these are the days of our lives with lisa stansfield
EXTD=
EXTT0=
EXTT1=
EXTT2=
EXTT3=
EXTT4=
EXTT5=
EXTT6=
EXTT7=
EXTT8=
EXTT9=
EXTT10=
EXTT11=
EXTT12=
PLAYORDER=
